<svg width="19" height="11" viewBox="0 0 19 11" fill="none" xmlns="http://www.w3.org/2000/svg">
<path fill-rule="evenodd" clip-rule="evenodd" d="M12.5848 0.678658C12.6516 0.611724 12.7309 0.558618 12.8182 0.522384C12.9055 0.486149 12.9992 0.467499 13.0937 0.467499C13.1882 0.467499 13.2818 0.486149 13.3692 0.522384C13.4565 0.558618 13.5358 0.611724 13.6026 0.678658L17.9151 4.99116C17.982 5.05793 18.0351 5.13724 18.0713 5.22456C18.1076 5.31188 18.1262 5.40549 18.1262 5.50003C18.1262 5.59457 18.1076 5.68819 18.0713 5.77551C18.0351 5.86283 17.982 5.94214 17.9151 6.00891L13.6026 10.3214C13.4676 10.4564 13.2846 10.5322 13.0937 10.5322C12.9028 10.5322 12.7198 10.4564 12.5848 10.3214C12.4499 10.1864 12.374 10.0034 12.374 9.81254C12.374 9.62167 12.4499 9.43862 12.5848 9.30366L16.3899 5.50003L12.5848 1.69641C12.5179 1.62964 12.4648 1.55033 12.4285 1.46301C12.3923 1.37569 12.3737 1.28207 12.3737 1.18753C12.3737 1.09299 12.3923 0.999381 12.4285 0.91206C12.4648 0.824739 12.5179 0.745424 12.5848 0.678658Z" fill="#A89365"/>
<path fill-rule="evenodd" clip-rule="evenodd" d="M0.875 5.5C0.875 5.30938 0.950725 5.12656 1.08552 4.99177C1.22031 4.85698 1.40313 4.78125 1.59375 4.78125H16.6875C16.8781 4.78125 17.0609 4.85698 17.1957 4.99177C17.3305 5.12656 17.4062 5.30938 17.4062 5.5C17.4062 5.69062 17.3305 5.87344 17.1957 6.00823C17.0609 6.14303 16.8781 6.21875 16.6875 6.21875H1.59375C1.40313 6.21875 1.22031 6.14303 1.08552 6.00823C0.950725 5.87344 0.875 5.69062 0.875 5.5Z" fill="#A89365"/>
</svg>
