<svg xmlns="http://www.w3.org/2000/svg" viewBox="0 0 512 512">
  <path
    d="M180.599 155.784c-5.453 0-9.885 4.421-9.885 9.874 0 5.464 4.432 9.874 9.885 9.874 5.453 0 9.863-4.41 9.863-9.874 0-5.453-4.41-9.874-9.863-9.874zM331.401 155.784c-5.453 0-9.874 4.421-9.874 9.874a9.867 9.867 0 009.874 9.874 9.867 9.867 0 009.874-9.874c0-5.453-4.42-9.874-9.874-9.874zM256 53.579c-28.687 0-54.814 14.639-69.872 39.163-2.915 4.733-1.431 10.939 3.302 13.854a9.995 9.995 0 005.271 1.506c3.388 0 6.701-1.71 8.605-4.808C214.675 84.783 234.369 73.736 256 73.736c5.561 0 10.079-4.518 10.079-10.079 0-5.571-4.518-10.078-10.079-10.078z" />
  <path
    d="M180.599 155.784c-5.453 0-9.885 4.421-9.885 9.874 0 5.464 4.432 9.874 9.885 9.874 5.453 0 9.863-4.41 9.863-9.874 0-5.453-4.41-9.874-9.863-9.874zM256 53.579c-28.687 0-54.814 14.639-69.872 39.163-2.915 4.733-1.431 10.939 3.302 13.854a9.995 9.995 0 005.271 1.506c3.388 0 6.701-1.71 8.605-4.808C214.675 84.783 234.369 73.736 256 73.736c5.561 0 10.079-4.518 10.079-10.079 0-5.571-4.518-10.078-10.079-10.078zM331.401 155.784c-5.453 0-9.874 4.421-9.874 9.874a9.867 9.867 0 009.874 9.874 9.867 9.867 0 009.874-9.874c0-5.453-4.42-9.874-9.874-9.874z" />
  <path
    d="M180.599 155.784c-5.453 0-9.885 4.421-9.885 9.874 0 5.464 4.432 9.874 9.885 9.874 5.453 0 9.863-4.41 9.863-9.874 0-5.453-4.41-9.874-9.863-9.874zM256 53.579c-28.687 0-54.814 14.639-69.872 39.163-2.915 4.733-1.431 10.939 3.302 13.854a9.995 9.995 0 005.271 1.506c3.388 0 6.701-1.71 8.605-4.808C214.675 84.783 234.369 73.736 256 73.736c5.561 0 10.079-4.518 10.079-10.079 0-5.571-4.518-10.078-10.079-10.078zM331.401 155.784c-5.453 0-9.874 4.421-9.874 9.874a9.867 9.867 0 009.874 9.874 9.867 9.867 0 009.874-9.874c0-5.453-4.42-9.874-9.874-9.874z" />
  <path
    d="M331.401 155.784c-5.453 0-9.874 4.421-9.874 9.874a9.867 9.867 0 009.874 9.874 9.867 9.867 0 009.874-9.874c0-5.453-4.42-9.874-9.874-9.874zM256 53.579c-28.687 0-54.814 14.639-69.872 39.163-2.915 4.733-1.431 10.939 3.302 13.854a9.995 9.995 0 005.271 1.506c3.388 0 6.701-1.71 8.605-4.808C214.675 84.783 234.369 73.736 256 73.736c5.561 0 10.079-4.518 10.079-10.079 0-5.571-4.518-10.078-10.079-10.078zM180.599 155.784c-5.453 0-9.885 4.421-9.885 9.874 0 5.464 4.432 9.874 9.885 9.874 5.453 0 9.863-4.41 9.863-9.874 0-5.453-4.41-9.874-9.863-9.874z" />
  <path
    d="M180.599 155.784c-5.453 0-9.885 4.421-9.885 9.874 0 5.464 4.432 9.874 9.885 9.874 5.453 0 9.863-4.41 9.863-9.874 0-5.453-4.41-9.874-9.863-9.874zM256 53.579c-28.687 0-54.814 14.639-69.872 39.163-2.915 4.733-1.431 10.939 3.302 13.854a9.995 9.995 0 005.271 1.506c3.388 0 6.701-1.71 8.605-4.808C214.675 84.783 234.369 73.736 256 73.736c5.561 0 10.079-4.518 10.079-10.079 0-5.571-4.518-10.078-10.079-10.078zM331.401 155.784c-5.453 0-9.874 4.421-9.874 9.874a9.867 9.867 0 009.874 9.874 9.867 9.867 0 009.874-9.874c0-5.453-4.42-9.874-9.874-9.874z" />
  <path
    d="M507.179 265.38a27.09 27.09 0 00-22.169-11.541c-11.273 0-21.2 6.949-25.277 17.705-3.431 9.014-12.187 14.585-21.835 13.865-11.143-.85-19.867-10.573-19.867-22.126 0 0-.032-73.927-.075-74.562-1.14-24.029-13.639-45.649-33.742-58.923C381.202 61.668 324.84 7.177 256 7.177c-68.861 0-125.224 54.502-128.225 122.621-20.093 13.273-32.591 34.893-33.732 58.869-.032.688-.075 74.616-.075 74.616 0 11.552-8.723 21.276-19.867 22.126-9.627.721-18.404-4.851-21.835-13.865-4.077-10.756-14.005-17.705-25.299-17.705-8.809 0-17.092 4.324-22.147 11.541-4.991 7.142-6.185 16.253-3.216 24.374 10.982 29.999 39.131 49.543 70.797 49.543 1.205 0 2.431-.032 3.646-.086 20.448-.968 38.647-10.111 51.598-24.223v47.026c0 11.574-8.723 21.297-19.856 22.126-9.638.742-18.415-4.83-21.846-13.854-4.077-10.756-14.005-17.705-25.299-17.705a27.049 27.049 0 00-22.147 11.552c-4.98 7.142-6.185 16.242-3.216 24.374 10.982 29.999 39.131 49.532 70.797 49.532 1.215 0 2.42-.032 3.646-.075 40.239-1.915 71.755-35.399 71.755-76.262V258.893c0-3.797 3.098-6.895 6.895-6.895s6.895 3.098 6.895 6.895v219.018c0 14.854 12.079 26.912 26.912 26.912 14.844 0 26.923-12.058 26.923-26.912V258.893c0-3.797 3.098-6.895 6.895-6.895 3.797 0 6.895 3.098 6.895 6.895v219.018c0 14.854 12.079 26.912 26.912 26.912 14.844 0 26.923-12.058 26.923-26.912V258.893c0-3.797 3.087-6.895 6.884-6.895 3.808 0 6.895 3.098 6.895 6.895v102.808c0 40.863 31.526 74.347 71.765 76.262 1.226.043 2.431.075 3.646.075 31.656 0 59.815-19.544 70.787-49.532 2.969-8.132 1.775-17.231-3.216-24.374a27.024 27.024 0 00-22.158-11.552c-11.283 0-21.2 6.949-25.288 17.705-3.431 9.024-12.208 14.585-21.835 13.854-11.133-.828-19.867-10.552-19.867-22.125v-47.026c12.951 14.112 31.15 23.255 51.608 24.223 1.215.054 2.442.086 3.646.086 31.666 0 59.815-19.544 70.797-49.543 2.971-8.122 1.777-17.232-3.214-24.374zm-15.715 17.457c-4.259 11.606-12.025 21.061-21.824 27.418a9.867 9.867 0 00-10.186-1.355c-3.496 1.527-5.647 4.862-5.873 8.433a55.43 55.43 0 01-16.672 1.742 55.033 55.033 0 01-9.885-1.388c-.301-3.571-2.528-6.841-6.056-8.304s-7.422-.721-10.154 1.592c-7.615-4.722-13.983-11.251-18.565-19.006 2.356-2.711 3.173-6.583 1.764-10.154-1.409-3.56-4.668-5.841-8.239-6.185a57.857 57.857 0 01-1.42-12.671v-9.154c3.571-1.495 6.077-5.012 6.077-9.111a9.877 9.877 0 00-6.077-9.132v-22.749a9.888 9.888 0 006.077-9.132c0-4.098-2.506-7.615-6.077-9.111v-3.7c0-5.561-4.518-10.079-10.079-10.079s-10.079 4.518-10.079 10.079v67.83c0 .065-.011.129-.011.194v103.12c0 22.061 16.909 40.605 38.507 42.24 18.619 1.409 35.571-9.379 42.197-26.805 1.086-2.861 3.614-4.7 6.464-4.7 3.216 0 5.002 2.054 5.615 2.936.721 1.043 1.796 3.184.807 5.884-4.249 11.617-12.015 21.082-21.824 27.428-2.786-2.248-6.68-2.904-10.175-1.345-3.507 1.527-5.658 4.851-5.884 8.422a55.324 55.324 0 01-16.672 1.742 55.173 55.173 0 01-9.885-1.388 9.883 9.883 0 00-6.045-8.304 9.897 9.897 0 00-10.165 1.592 55.69 55.69 0 01-18.565-19.017 9.852 9.852 0 001.764-10.143c-1.409-3.56-4.668-5.841-8.239-6.185a57.781 57.781 0 01-1.42-12.671v-9.143a9.881 9.881 0 006.088-9.132c0-4.109-2.506-7.626-6.088-9.121v-22.76c3.582-1.474 6.088-5.002 6.088-9.111s-2.506-7.626-6.088-9.121v-34.42c0-14.919-12.133-27.052-27.052-27.052-14.908 0-27.041 12.133-27.041 27.052v31.871c-3.582 1.495-6.077 5.012-6.077 9.121s2.495 7.637 6.077 9.11v22.771a9.842 9.842 0 00-6.077 9.111 9.845 9.845 0 006.077 9.121v22.674a9.842 9.842 0 00-6.077 9.11 9.867 9.867 0 006.077 9.121v22.846a9.846 9.846 0 00-6.077 9.121 9.854 9.854 0 006.077 9.111v22.76a9.852 9.852 0 00-6.077 9.111 9.867 9.867 0 006.077 9.121v4.937c0 3.732-3.033 6.755-6.766 6.755s-6.755-3.023-6.755-6.755V258.893c0-14.919-12.133-27.052-27.052-27.052s-27.052 12.133-27.052 27.052v219.018c0 3.732-3.033 6.755-6.766 6.755a6.76 6.76 0 01-6.755-6.755v-4.948a9.87 9.87 0 006.077-9.111c0-4.098-2.506-7.615-6.077-9.111v-22.76c3.571-1.495 6.077-5.012 6.077-9.111a9.85 9.85 0 00-6.077-9.121v-22.76l.011.075c3.571-1.495 6.077-5.012 6.077-9.121s-2.506-7.626-6.077-9.121l-.011-.075v-22.76c3.571-1.474 6.077-5.002 6.077-9.111s-2.506-7.626-6.077-9.121v-22.76a9.859 9.859 0 006.077-9.111 9.871 9.871 0 00-6.077-9.111v-31.881c0-14.919-12.133-27.052-27.052-27.052s-27.052 12.133-27.052 27.052v34.42c-3.571 1.495-6.077 5.012-6.077 9.121a9.848 9.848 0 006.077 9.111v22.76c-3.571 1.495-6.077 5.012-6.077 9.121a9.888 9.888 0 006.077 9.132v9.143a57.78 57.78 0 01-1.409 12.671 9.895 9.895 0 00-8.25 6.185 9.874 9.874 0 001.764 10.143 55.6 55.6 0 01-18.565 19.017 9.882 9.882 0 00-10.154-1.592 9.894 9.894 0 00-6.056 8.304 55.232 55.232 0 01-9.874 1.388 55.429 55.429 0 01-16.683-1.742c-.226-3.571-2.366-6.895-5.884-8.422-3.496-1.56-7.39-.904-10.175 1.355-9.799-6.357-17.565-15.822-21.824-27.439-.99-2.7.086-4.84.807-5.884.624-.882 2.409-2.936 5.647-2.936 2.818 0 5.346 1.839 6.443 4.701 6.239 16.414 21.631 26.923 38.948 26.923 1.076 0 2.151-.043 3.238-.118 21.599-1.635 38.507-20.179 38.507-42.24V190.871c0-5.561-4.518-10.079-10.079-10.079-5.561 0-10.079 4.518-10.079 10.079v3.7c-3.571 1.495-6.077 5.012-6.077 9.111a9.888 9.888 0 006.077 9.132v22.749a9.877 9.877 0 00-6.077 9.132c0 4.098 2.506 7.615 6.077 9.111v9.154c0 4.356-.506 8.594-1.42 12.671-3.571.344-6.83 2.625-8.239 6.185-1.409 3.571-.592 7.443 1.764 10.154-4.582 7.755-10.95 14.284-18.565 19.006-2.732-2.313-6.626-3.055-10.154-1.592s-5.755 4.733-6.056 8.304a55.213 55.213 0 01-9.885 1.388 55.43 55.43 0 01-16.672-1.742c-.226-3.571-2.377-6.905-5.873-8.433a9.866 9.866 0 00-10.186 1.355c-9.799-6.346-17.565-15.812-21.824-27.418-.99-2.721.086-4.862.807-5.905.613-.882 2.399-2.936 5.647-2.936 2.818 0 5.357 1.85 6.432 4.701 6.249 16.425 21.641 26.923 38.959 26.923 1.065 0 2.151-.032 3.248-.118 21.588-1.635 38.496-20.179 38.496-42.218 0 0 .021-73.164.054-73.605.893-18.974 11.541-35.915 28.45-45.337.204-.118.344-.215.452-.29 2.829-1.786 4.722-4.937 4.722-8.53 0-59.654 48.532-108.186 108.197-108.186 59.654 0 108.186 48.532 108.186 108.186 0 3.603 1.893 6.755 4.733 8.54.097.065.226.151.441.269 16.92 9.422 27.568 26.374 28.472 45.402.021.377.043 73.551.043 73.551 0 22.039 16.909 40.583 38.496 42.218 18.63 1.398 35.571-9.358 42.207-26.805 1.076-2.85 3.614-4.701 6.454-4.701 3.227 0 5.012 2.054 5.625 2.936.723 1.042 1.799 3.182.809 5.904z" />
  <path
    d="M180.599 155.784c-5.453 0-9.885 4.421-9.885 9.874 0 5.464 4.432 9.874 9.885 9.874 5.453 0 9.863-4.41 9.863-9.874 0-5.453-4.41-9.874-9.863-9.874zM256 53.579c-28.687 0-54.814 14.639-69.872 39.163-2.915 4.733-1.431 10.939 3.302 13.854a9.995 9.995 0 005.271 1.506c3.388 0 6.701-1.71 8.605-4.808C214.675 84.783 234.369 73.736 256 73.736c5.561 0 10.079-4.518 10.079-10.079 0-5.571-4.518-10.078-10.079-10.078zM331.401 155.784c-5.453 0-9.874 4.421-9.874 9.874a9.867 9.867 0 009.874 9.874 9.867 9.867 0 009.874-9.874c0-5.453-4.42-9.874-9.874-9.874z" />
  <path
    d="M331.401 155.784c-5.453 0-9.874 4.421-9.874 9.874a9.867 9.867 0 009.874 9.874 9.867 9.867 0 009.874-9.874c0-5.453-4.42-9.874-9.874-9.874zM256 53.579c-28.687 0-54.814 14.639-69.872 39.163-2.915 4.733-1.431 10.939 3.302 13.854a9.995 9.995 0 005.271 1.506c3.388 0 6.701-1.71 8.605-4.808C214.675 84.783 234.369 73.736 256 73.736c5.561 0 10.079-4.518 10.079-10.079 0-5.571-4.518-10.078-10.079-10.078zM180.599 155.784c-5.453 0-9.885 4.421-9.885 9.874 0 5.464 4.432 9.874 9.885 9.874 5.453 0 9.863-4.41 9.863-9.874 0-5.453-4.41-9.874-9.863-9.874z" />
  <path
    d="M331.401 155.784c-5.453 0-9.874 4.421-9.874 9.874a9.867 9.867 0 009.874 9.874 9.867 9.867 0 009.874-9.874c0-5.453-4.42-9.874-9.874-9.874zM256 53.579c-28.687 0-54.814 14.639-69.872 39.163-2.915 4.733-1.431 10.939 3.302 13.854a9.995 9.995 0 005.271 1.506c3.388 0 6.701-1.71 8.605-4.808C214.675 84.783 234.369 73.736 256 73.736c5.561 0 10.079-4.518 10.079-10.079 0-5.571-4.518-10.078-10.079-10.078zM180.599 155.784c-5.453 0-9.885 4.421-9.885 9.874 0 5.464 4.432 9.874 9.885 9.874 5.453 0 9.863-4.41 9.863-9.874 0-5.453-4.41-9.874-9.863-9.874z" />
  <path
    d="M180.599 155.784c-5.453 0-9.885 4.421-9.885 9.874 0 5.464 4.432 9.874 9.885 9.874 5.453 0 9.863-4.41 9.863-9.874 0-5.453-4.41-9.874-9.863-9.874z" />
  <path
    d="M180.599 155.784c-5.453 0-9.885 4.421-9.885 9.874 0 5.464 4.432 9.874 9.885 9.874 5.453 0 9.863-4.41 9.863-9.874 0-5.453-4.41-9.874-9.863-9.874z" />
  <path
    d="M180.599 155.784c-5.453 0-9.885 4.421-9.885 9.874 0 5.464 4.432 9.874 9.885 9.874 5.453 0 9.863-4.41 9.863-9.874 0-5.453-4.41-9.874-9.863-9.874z" />
  </svg>
